<?xml version="1.0" encoding="UTF-8" standalone="no"?>
<!-- Created with Inkscape (http://www.inkscape.org/) -->

<svg
   xmlns:dc="http://purl.org/dc/elements/1.1/"
   xmlns:cc="http://creativecommons.org/ns#"
   xmlns:rdf="http://www.w3.org/1999/02/22-rdf-syntax-ns#"
   xmlns:svg="http://www.w3.org/2000/svg"
   xmlns="http://www.w3.org/2000/svg"
   xmlns:sodipodi="http://sodipodi.sourceforge.net/DTD/sodipodi-0.dtd"
   xmlns:inkscape="http://www.inkscape.org/namespaces/inkscape"
   width="120.4799mm"
   height="180.67262mm"
   viewBox="0 0 120.4799 180.67262"
   version="1.1"
   id="svg8"
   inkscape:version="0.92.3 (2405546, 2018-03-11)"
   sodipodi:docname="poster-not-available.svg">
  <defs
     id="defs2" />
  <sodipodi:namedview
     id="base"
     pagecolor="#ffffff"
     bordercolor="#666666"
     borderopacity="1.0"
     inkscape:pageopacity="0.0"
     inkscape:pageshadow="2"
     inkscape:zoom="0.35"
     inkscape:cx="-79.400411"
     inkscape:cy="395.25611"
     inkscape:document-units="mm"
     inkscape:current-layer="layer2"
     showgrid="false"
     inkscape:window-width="1920"
     inkscape:window-height="1012"
     inkscape:window-x="0"
     inkscape:window-y="0"
     inkscape:window-maximized="1"
     fit-margin-top="0"
     fit-margin-left="0"
     fit-margin-right="0"
     fit-margin-bottom="0" />
  <metadata
     id="metadata5">
    <rdf:RDF>
      <cc:Work
         rdf:about="">
        <dc:format>image/svg+xml</dc:format>
        <dc:type
           rdf:resource="http://purl.org/dc/dcmitype/StillImage" />
        <dc:title></dc:title>
      </cc:Work>
    </rdf:RDF>
  </metadata>
  <g
     inkscape:label="Capa 1"
     inkscape:groupmode="layer"
     id="layer1"
     transform="translate(-23.434523,-23.061756)" />
  <g
     inkscape:groupmode="layer"
     id="layer2"
     inkscape:label="Capa 2"
     transform="translate(-23.434523,-23.061756)">
    <g
       id="g1575">
      <rect
         y="23.061756"
         x="23.434523"
         height="180.67262"
         width="120.4799"
         id="rect827"
         style="opacity:1;fill:#b0b0b0;fill-opacity:1;fill-rule:nonzero;stroke:none;stroke-width:0.69999999;stroke-linecap:round;stroke-linejoin:round;stroke-miterlimit:4;stroke-dasharray:none;stroke-dashoffset:0;stroke-opacity:1;paint-order:normal" />
      <g
         id="flowRoot829"
         style="font-style:normal;font-variant:normal;font-weight:normal;font-stretch:normal;font-size:37.33333206px;line-height:1.25;font-family:'Courier 10 Pitch';-inkscape-font-specification:'Courier 10 Pitch';text-align:center;letter-spacing:-47.63020325px;word-spacing:0px;text-anchor:middle;fill:#000000;fill-opacity:1;stroke:none;stroke-width:0.78952265"
         transform="matrix(0.3351181,0,0,0.3351181,-297.96068,18.494982)"
         aria-label="Poster not">
        <path
           id="path1530"
           style="font-style:normal;font-variant:normal;font-weight:normal;font-stretch:normal;font-size:37.33333206px;font-family:sans-serif;-inkscape-font-specification:sans-serif;letter-spacing:5px;stroke-width:0.78952265"
           d="m 1027.4863,307.07552 v 10.22656 h 4.6302 q 2.5704,0 3.974,-1.33073 1.4036,-1.33073 1.4036,-3.79166 0,-2.44271 -1.4036,-3.77344 -1.4036,-1.33073 -3.974,-1.33073 z m -3.6823,-3.02604 h 8.3125 q 4.5756,0 6.9089,2.07812 2.3516,2.0599 2.3516,6.05209 0,4.02864 -2.3516,6.08854 -2.3333,2.05989 -6.9089,2.05989 h -4.6302 v 10.9375 h -3.6823 z"
           inkscape:connector-curvature="0" />
        <path
           id="path1532"
           style="font-style:normal;font-variant:normal;font-weight:normal;font-stretch:normal;font-size:37.33333206px;font-family:sans-serif;-inkscape-font-specification:sans-serif;letter-spacing:5px;stroke-width:0.78952265"
           d="m 1057.7884,313.20052 q -2.6979,0 -4.2656,2.11458 -1.5677,2.09636 -1.5677,5.76042 0,3.66406 1.5495,5.77865 1.5677,2.09635 4.2838,2.09635 2.6797,0 4.2474,-2.11458 1.5677,-2.11459 1.5677,-5.76042 0,-3.6276 -1.5677,-5.74219 -1.5677,-2.13281 -4.2474,-2.13281 z m 0,-2.84375 q 4.375,0 6.8724,2.84375 2.4974,2.84375 2.4974,7.875 0,5.01302 -2.4974,7.875 -2.4974,2.84375 -6.8724,2.84375 -4.3932,0 -6.8906,-2.84375 -2.4792,-2.86198 -2.4792,-7.875 0,-5.03125 2.4792,-7.875 2.4974,-2.84375 6.8906,-2.84375 z"
           inkscape:connector-curvature="0" />
        <path
           id="path1534"
           style="font-style:normal;font-variant:normal;font-weight:normal;font-stretch:normal;font-size:37.33333206px;font-family:sans-serif;-inkscape-font-specification:sans-serif;letter-spacing:5px;stroke-width:0.78952265"
           d="m 1090.7155,311.45052 v 3.17188 q -1.4219,-0.72917 -2.9531,-1.09375 -1.5313,-0.36459 -3.1719,-0.36459 -2.4974,0 -3.7552,0.76563 -1.2396,0.76562 -1.2396,2.29687 0,1.16667 0.8932,1.84115 0.8933,0.65625 3.5912,1.25781 l 1.1484,0.25521 q 3.5729,0.76562 5.0677,2.16927 1.513,1.38542 1.513,3.88281 0,2.84375 -2.2604,4.50261 -2.2422,1.65885 -6.1797,1.65885 -1.6406,0 -3.427,-0.32813 -1.7683,-0.30989 -3.737,-0.94791 v -3.46354 q 1.8594,0.96614 3.664,1.45833 1.8047,0.47396 3.573,0.47396 2.3697,0 3.6458,-0.80209 1.276,-0.82031 1.276,-2.29687 0,-1.36719 -0.9297,-2.09635 -0.9114,-0.72917 -4.0286,-1.40365 l -1.1667,-0.27344 q -3.1172,-0.65625 -4.5026,-2.00521 -1.3854,-1.36718 -1.3854,-3.73697 0,-2.88021 2.0417,-4.44792 2.0416,-1.56771 5.7969,-1.56771 1.8593,0 3.5,0.27344 1.6406,0.27344 3.026,0.82031 z"
           inkscape:connector-curvature="0" />
        <path
           id="path1536"
           style="font-style:normal;font-variant:normal;font-weight:normal;font-stretch:normal;font-size:37.33333206px;font-family:sans-serif;-inkscape-font-specification:sans-serif;letter-spacing:5px;stroke-width:0.78952265"
           d="m 1105.4863,305.05208 v 5.79688 h 6.9089 v 2.60677 h -6.9089 v 11.08333 q 0,2.4974 0.6745,3.20833 0.6927,0.71094 2.7891,0.71094 h 3.4453 v 2.80729 h -3.4453 q -3.8828,0 -5.3594,-1.4401 -1.4766,-1.45833 -1.4766,-5.28646 v -11.08333 h -2.4609 v -2.60677 h 2.4609 v -5.79688 z"
           inkscape:connector-curvature="0" />
        <path
           id="path1538"
           style="font-style:normal;font-variant:normal;font-weight:normal;font-stretch:normal;font-size:37.33333206px;font-family:sans-serif;-inkscape-font-specification:sans-serif;letter-spacing:5px;stroke-width:0.78952265"
           d="m 1139.2884,320.21875 v 1.64062 h -15.4219 q 0.2188,3.46355 2.0782,5.28646 1.8776,1.80469 5.2135,1.80469 1.9323,0 3.737,-0.47396 1.8229,-0.47396 3.6094,-1.42187 v 3.17187 q -1.8047,0.76563 -3.7006,1.16667 -1.8958,0.40104 -3.8463,0.40104 -4.8854,0 -7.7474,-2.84375 -2.8438,-2.84375 -2.8438,-7.69271 0,-5.01302 2.698,-7.94791 2.7161,-2.95313 7.3098,-2.95313 4.1198,0 6.5079,2.66146 2.4062,2.64323 2.4062,7.20052 z m -3.3542,-0.98438 q -0.036,-2.7526 -1.5494,-4.39322 -1.4948,-1.64063 -3.974,-1.64063 -2.8073,0 -4.5026,1.58594 -1.6771,1.58594 -1.9323,4.46614 z"
           inkscape:connector-curvature="0" />
        <path
           id="path1540"
           style="font-style:normal;font-variant:normal;font-weight:normal;font-stretch:normal;font-size:37.33333206px;font-family:sans-serif;-inkscape-font-specification:sans-serif;letter-spacing:5px;stroke-width:0.78952265"
           d="m 1161.6243,313.98437 q -0.5651,-0.32812 -1.2395,-0.47395 -0.6563,-0.16407 -1.4584,-0.16407 -2.8437,0 -4.375,1.85938 -1.513,1.84114 -1.513,5.30469 v 10.7552 h -3.3724 v -20.41666 h 3.3724 v 3.17187 q 1.0573,-1.85937 2.7526,-2.7526 1.6953,-0.91146 4.1198,-0.91146 0.3464,0 0.7656,0.0547 0.4193,0.0365 0.9297,0.1276 z"
           inkscape:connector-curvature="0" />
        <path
           id="path1542"
           style="font-style:normal;font-variant:normal;font-weight:normal;font-stretch:normal;font-size:37.33333206px;font-family:sans-serif;-inkscape-font-specification:sans-serif;letter-spacing:5px;stroke-width:0.78952265"
           d="m 1204.0358,318.94271 v 12.32291 h -3.3542 v -12.21354 q 0,-2.89843 -1.1302,-4.33854 -1.1302,-1.4401 -3.3906,-1.4401 -2.7161,0 -4.2838,1.73177 -1.5678,1.73177 -1.5678,4.72135 v 11.53906 h -3.3723 v -20.41666 h 3.3723 v 3.17187 q 1.2032,-1.84114 2.8256,-2.7526 1.6406,-0.91146 3.7734,-0.91146 3.5182,0 5.3229,2.1875 1.8047,2.16927 1.8047,6.39844 z"
           inkscape:connector-curvature="0" />
        <path
           id="path1544"
           style="font-style:normal;font-variant:normal;font-weight:normal;font-stretch:normal;font-size:37.33333206px;font-family:sans-serif;-inkscape-font-specification:sans-serif;letter-spacing:5px;stroke-width:0.78952265"
           d="m 1223.6738,313.20052 q -2.6979,0 -4.2656,2.11458 -1.5677,2.09636 -1.5677,5.76042 0,3.66406 1.5495,5.77865 1.5677,2.09635 4.2838,2.09635 2.6797,0 4.2474,-2.11458 1.5677,-2.11459 1.5677,-5.76042 0,-3.6276 -1.5677,-5.74219 -1.5677,-2.13281 -4.2474,-2.13281 z m 0,-2.84375 q 4.375,0 6.8724,2.84375 2.4974,2.84375 2.4974,7.875 0,5.01302 -2.4974,7.875 -2.4974,2.84375 -6.8724,2.84375 -4.3932,0 -6.8906,-2.84375 -2.4792,-2.86198 -2.4792,-7.875 0,-5.03125 2.4792,-7.875 2.4974,-2.84375 6.8906,-2.84375 z"
           inkscape:connector-curvature="0" />
        <path
           id="path1546"
           style="font-style:normal;font-variant:normal;font-weight:normal;font-stretch:normal;font-size:37.33333206px;font-family:sans-serif;-inkscape-font-specification:sans-serif;letter-spacing:5px;stroke-width:0.78952265"
           d="m 1246.903,305.05208 v 5.79688 h 6.9088 v 2.60677 h -6.9088 v 11.08333 q 0,2.4974 0.6745,3.20833 0.6927,0.71094 2.789,0.71094 h 3.4453 v 2.80729 h -3.4453 q -3.8828,0 -5.3593,-1.4401 -1.4766,-1.45833 -1.4766,-5.28646 v -11.08333 h -2.4609 v -2.60677 h 2.4609 v -5.79688 z"
           inkscape:connector-curvature="0" />
      </g>
      <g
         id="flowRoot1329"
         style="font-style:normal;font-weight:normal;font-size:12px;line-height:1.25;font-family:sans-serif;text-align:center;letter-spacing:-100px;word-spacing:0px;text-anchor:middle;fill:#000000;fill-opacity:1;stroke:none;stroke-width:0.78952265"
         transform="matrix(0.3351181,0,0,0.3351181,-233.56182,204.12488)"
         aria-label="available">
        <path
           id="path1511"
           style="font-size:37.33333206px;letter-spacing:5px;stroke-width:0.78952265"
           d="m 855.05436,-180.03255 q -4.0651,0 -5.63281,0.92968 -1.56771,0.92969 -1.56771,3.17188 0,1.78646 1.16667,2.84375 1.1849,1.03906 3.20833,1.03906 2.78907,0 4.46615,-1.96875 1.69531,-1.98698 1.69531,-5.26823 v -0.74739 z m 6.69011,-1.38542 v 11.64844 h -3.35417 v -3.09896 q -1.14844,1.85937 -2.86198,2.7526 -1.71354,0.875 -4.19271,0.875 -3.13541,0 -4.99479,-1.75 -1.84114,-1.76823 -1.84114,-4.72135 0,-3.44531 2.29687,-5.19531 2.31511,-1.75 6.89063,-1.75 h 4.70312 v -0.32813 q 0,-2.3151 -1.53125,-3.57291 -1.51302,-1.27605 -4.26562,-1.27605 -1.75,0 -3.40886,0.41927 -1.65885,0.41928 -3.1901,1.25782 v -3.09896 q 1.84114,-0.71094 3.57292,-1.05729 1.73177,-0.36459 3.37239,-0.36459 4.42969,0 6.61719,2.29688 2.1875,2.29687 2.1875,6.96354 z"
           inkscape:connector-curvature="0" />
        <path
           id="path1513"
           style="font-size:37.33333206px;letter-spacing:5px;stroke-width:0.78952265"
           d="m 871.2653,-190.1862 h 3.55469 l 6.38021,17.13542 6.3802,-17.13542 h 3.55469 l -7.65625,20.41667 h -4.55729 z"
           inkscape:connector-curvature="0" />
        <path
           id="path1515"
           style="font-size:37.33333206px;letter-spacing:5px;stroke-width:0.78952265"
           d="m 910.04395,-180.03255 q -4.06511,0 -5.63282,0.92968 -1.5677,0.92969 -1.5677,3.17188 0,1.78646 1.16666,2.84375 1.1849,1.03906 3.20834,1.03906 2.78906,0 4.46614,-1.96875 1.69531,-1.98698 1.69531,-5.26823 v -0.74739 z m 6.6901,-1.38542 v 11.64844 h -3.35417 v -3.09896 q -1.14843,1.85937 -2.86198,2.7526 -1.71354,0.875 -4.1927,0.875 -3.13542,0 -4.99479,-1.75 -1.84115,-1.76823 -1.84115,-4.72135 0,-3.44531 2.29687,-5.19531 2.31511,-1.75 6.89063,-1.75 h 4.70312 v -0.32813 q 0,-2.3151 -1.53125,-3.57291 -1.51302,-1.27605 -4.26562,-1.27605 -1.75,0 -3.40885,0.41927 -1.65886,0.41928 -3.19011,1.25782 v -3.09896 q 1.84115,-0.71094 3.57292,-1.05729 1.73177,-0.36459 3.37239,-0.36459 4.42969,0 6.61719,2.29688 2.1875,2.29687 2.1875,6.96354 z"
           inkscape:connector-curvature="0" />
        <path
           id="path1517"
           style="font-size:37.33333206px;letter-spacing:5px;stroke-width:0.78952265"
           d="m 928.66113,-190.1862 h 3.35417 v 20.41667 h -3.35417 z m 0,-7.94791 h 3.35417 v 4.24739 h -3.35417 z"
           inkscape:connector-curvature="0" />
        <path
           id="path1519"
           style="font-size:37.33333206px;letter-spacing:5px;stroke-width:0.78952265"
           d="m 944.0153,-198.13411 h 3.35416 v 28.36458 h -3.35416 z"
           inkscape:connector-curvature="0" />
        <path
           id="path1521"
           style="font-size:37.33333206px;letter-spacing:5px;stroke-width:0.78952265"
           d="m 968.64811,-180.03255 q -4.0651,0 -5.63281,0.92968 -1.56771,0.92969 -1.56771,3.17188 0,1.78646 1.16667,2.84375 1.1849,1.03906 3.20833,1.03906 2.78907,0 4.46615,-1.96875 1.69531,-1.98698 1.69531,-5.26823 v -0.74739 z m 6.69011,-1.38542 v 11.64844 h -3.35417 v -3.09896 q -1.14844,1.85937 -2.86198,2.7526 -1.71354,0.875 -4.19271,0.875 -3.13541,0 -4.99479,-1.75 -1.84114,-1.76823 -1.84114,-4.72135 0,-3.44531 2.29687,-5.19531 2.31511,-1.75 6.89063,-1.75 h 4.70312 v -0.32813 q 0,-2.3151 -1.53125,-3.57291 -1.51302,-1.27605 -4.26562,-1.27605 -1.75,0 -3.40886,0.41927 -1.65885,0.41928 -3.1901,1.25782 v -3.09896 q 1.84114,-0.71094 3.57292,-1.05729 1.73177,-0.36459 3.37239,-0.36459 4.42969,0 6.61719,2.29688 2.1875,2.29687 2.1875,6.96354 z"
           inkscape:connector-curvature="0" />
        <path
           id="path1523"
           style="font-size:37.33333206px;letter-spacing:5px;stroke-width:0.78952265"
           d="m 1001.9215,-179.95964 q 0,-3.70052 -1.5312,-5.79687 -1.51302,-2.11458 -4.17448,-2.11458 -2.66146,0 -4.19271,2.11458 -1.51302,2.09635 -1.51302,5.79687 0,3.70052 1.51302,5.81511 1.53125,2.09635 4.19271,2.09635 2.66146,0 4.17448,-2.09635 1.5312,-2.11459 1.5312,-5.81511 z m -11.41141,-7.1276 q 1.05729,-1.82292 2.66146,-2.69792 1.62239,-0.89323 3.86458,-0.89323 3.71877,0 6.03387,2.95313 2.3333,2.95312 2.3333,7.76562 0,4.8125 -2.3333,7.76563 -2.3151,2.95312 -6.03387,2.95312 -2.24219,0 -3.86458,-0.875 -1.60417,-0.89323 -2.66146,-2.71614 v 3.0625 h -3.3724 v -28.36458 h 3.3724 z"
           inkscape:connector-curvature="0" />
        <path
           id="path1525"
           style="font-size:37.33333206px;letter-spacing:5px;stroke-width:0.78952265"
           d="m 1015.9632,-198.13411 h 3.3542 v 28.36458 h -3.3542 z"
           inkscape:connector-curvature="0" />
        <path
           id="path1527"
           style="font-size:37.33333206px;letter-spacing:5px;stroke-width:0.78952265"
           d="m 1048.7809,-180.81641 v 1.64063 h -15.4219 q 0.2188,3.46354 2.0782,5.28646 1.8776,1.80468 5.2135,1.80468 1.9323,0 3.737,-0.47395 1.8229,-0.47396 3.6094,-1.42188 v 3.17188 q -1.8047,0.76562 -3.7006,1.16666 -1.8958,0.40104 -3.8463,0.40104 -4.8854,0 -7.7474,-2.84375 -2.8438,-2.84375 -2.8438,-7.6927 0,-5.01303 2.698,-7.94792 2.7161,-2.95313 7.3099,-2.95313 4.1197,0 6.5078,2.66146 2.4062,2.64323 2.4062,7.20052 z m -3.3542,-0.98437 q -0.036,-2.75261 -1.5494,-4.39323 -1.4948,-1.64063 -3.974,-1.64063 -2.8073,0 -4.5026,1.58594 -1.6771,1.58594 -1.9323,4.46615 z"
           inkscape:connector-curvature="0" />
      </g>
      <g
         style="stroke-width:0.97619736"
         transform="matrix(1.024383,0,0,1.024383,-1.7316689,5.1459049)"
         id="g1390">
        <rect
           style="opacity:1;fill:none;fill-opacity:1;fill-rule:nonzero;stroke:#000000;stroke-width:1.17143691;stroke-linecap:round;stroke-linejoin:round;stroke-miterlimit:4;stroke-dasharray:none;stroke-dashoffset:0;stroke-opacity:1;paint-order:normal"
           id="rect1365"
           width="31.003263"
           height="31.003263"
           x="67.87162"
           y="73.059624"
           ry="3.6897933"
           rx="3.6897933" />
        <path
           style="fill:none;stroke:#000000;stroke-width:1.17143691;stroke-linecap:butt;stroke-linejoin:miter;stroke-miterlimit:4;stroke-dasharray:none;stroke-opacity:1"
           d="m 76.101431,103.8607 17.8197,-17.281563 4.676632,5.044474"
           id="path1367"
           inkscape:connector-curvature="0"
           sodipodi:nodetypes="ccc" />
        <circle
           style="opacity:1;fill:none;fill-opacity:1;fill-rule:nonzero;stroke:#000000;stroke-width:1.17143691;stroke-linecap:round;stroke-linejoin:round;stroke-miterlimit:4;stroke-dasharray:none;stroke-dashoffset:0;stroke-opacity:1;paint-order:normal"
           id="path1369"
           cx="76.138588"
           cy="81.326378"
           r="2.9230156" />
        <path
           style="fill:none;stroke:#000000;stroke-width:1.17143691;stroke-linecap:butt;stroke-linejoin:miter;stroke-miterlimit:4;stroke-dasharray:none;stroke-opacity:1"
           d="m 68.064243,101.6078 7.64032,-7.042536 4.676632,5.044474"
           id="path1367-3"
           inkscape:connector-curvature="0"
           sodipodi:nodetypes="ccc" />
      </g>
    </g>
  </g>
</svg>
